<?xml version="1.0" encoding="UTF-8" standalone="no"?>
<svg
   xmlns:dc="http://purl.org/dc/elements/1.1/"
   xmlns:cc="http://creativecommons.org/ns#"
   xmlns:rdf="http://www.w3.org/1999/02/22-rdf-syntax-ns#"
   xmlns:svg="http://www.w3.org/2000/svg"
   xmlns="http://www.w3.org/2000/svg"
   xmlns:xlink="http://www.w3.org/1999/xlink"
   xmlns:sodipodi="http://sodipodi.sourceforge.net/DTD/sodipodi-0.dtd"
   xmlns:inkscape="http://www.inkscape.org/namespaces/inkscape"
   viewBox="0 0 128 128"
   style="display:inline;enable-background:new"
   version="1.0"
   id="svg11300"
   height="128"
   width="128"
   sodipodi:docname="org.xfce.appfinder.svg"
   inkscape:version="0.92.4 (5da689c313, 2019-01-14)">
  <sodipodi:namedview
     pagecolor="#ffffff"
     bordercolor="#666666"
     borderopacity="1"
     objecttolerance="10"
     gridtolerance="10"
     guidetolerance="10"
     inkscape:pageopacity="0"
     inkscape:pageshadow="2"
     inkscape:window-width="1920"
     inkscape:window-height="1019"
     id="namedview35"
     showgrid="false"
     inkscape:zoom="2.8284271"
     inkscape:cx="-1.7821572"
     inkscape:cy="-43.295398"
     inkscape:window-x="0"
     inkscape:window-y="0"
     inkscape:window-maximized="1"
     inkscape:current-layer="svg11300">
    <inkscape:grid
       type="xygrid"
       id="grid833"
       empspacing="4" />
  </sodipodi:namedview>
  <title
     id="title4162">Adwaita Icon Template</title>
  <defs
     id="defs3">
    <linearGradient
       id="linearGradient974">
      <stop
         style="stop-color:#babdb6;stop-opacity:1"
         offset="0"
         id="stop962" />
      <stop
         id="stop964"
         offset="0.04166667"
         style="stop-color:#f6f5f4;stop-opacity:1" />
      <stop
         style="stop-color:#d5d3cf;stop-opacity:1"
         offset="0.08333334"
         id="stop966" />
      <stop
         id="stop968"
         offset="0.91666669"
         style="stop-color:#deddda;stop-opacity:1" />
      <stop
         style="stop-color:#f6f5f4;stop-opacity:1"
         offset="0.95833331"
         id="stop970" />
      <stop
         style="stop-color:#babdb6;stop-opacity:1"
         offset="1"
         id="stop972" />
    </linearGradient>
    <linearGradient
       y2="44"
       x2="464"
       y1="44"
       x1="48"
       gradientTransform="matrix(0.25,0,0,0.25,0,53)"
       gradientUnits="userSpaceOnUse"
       id="linearGradient1747"
       xlink:href="#linearGradient974" />
    <filter
       inkscape:collect="always"
       style="color-interpolation-filters:sRGB"
       id="filter1069-3"
       x="-0.059999999"
       width="1.12"
       y="-0.059999999"
       height="1.12">
      <feGaussianBlur
         inkscape:collect="always"
         stdDeviation="0.095868385"
         id="feGaussianBlur1071-6" />
    </filter>
    <linearGradient
       inkscape:collect="always"
       id="linearGradient1507">
      <stop
         style="stop-color:#f1f3f5;stop-opacity:1"
         offset="0"
         id="stop1503" />
      <stop
         style="stop-color:#f1f3f5;stop-opacity:0"
         offset="1"
         id="stop1505" />
    </linearGradient>
    <clipPath
       clipPathUnits="userSpaceOnUse"
       id="clipPath1301-5">
      <circle
         id="circle1303-6"
         style="color:#000000;display:inline;overflow:visible;visibility:visible;fill:none;fill-opacity:1;stroke:#263742;stroke-width:0.59999961;stroke-linecap:round;stroke-linejoin:round;stroke-miterlimit:4;stroke-dasharray:none;stroke-dashoffset:0;stroke-opacity:1;marker:none;enable-background:new"
         cx="-34.435345"
         cy="661.5105"
         r="5.7120457"
         transform="matrix(0.70710309,-0.70711047,0.70710309,0.70711047,0,0)" />
    </clipPath>
    <linearGradient
       inkscape:collect="always"
       xlink:href="#linearGradient1164"
       id="linearGradient2064-8-8-2"
       x1="108.31814"
       y1="5.3370891"
       x2="108.57314"
       y2="-6.0936003"
       gradientUnits="userSpaceOnUse"
       gradientTransform="matrix(0.6497644,0,0,0.6399507,38.672674,-1.9682409)" />
    <linearGradient
       id="linearGradient1164"
       inkscape:collect="always">
      <stop
         id="stop1160"
         offset="0"
         style="stop-color:#dcb102;stop-opacity:1" />
      <stop
         id="stop1162"
         offset="1"
         style="stop-color:#fcf4c0;stop-opacity:1" />
    </linearGradient>
    <clipPath
       clipPathUnits="userSpaceOnUse"
       id="clipPath1336-9">
      <circle
         id="circle1338-3"
         style="color:#000000;display:inline;overflow:visible;visibility:visible;fill:none;fill-opacity:1;stroke:#263742;stroke-width:0.59999961;stroke-linecap:round;stroke-linejoin:round;stroke-miterlimit:4;stroke-dasharray:none;stroke-dashoffset:0;stroke-opacity:1;marker:none;enable-background:new"
         cx="-34.435345"
         cy="661.5105"
         r="5.7120457"
         transform="matrix(0.70710309,-0.70711047,0.70710309,0.70711047,0,0)" />
    </clipPath>
    <linearGradient
       inkscape:collect="always"
       xlink:href="#linearGradient1507"
       id="linearGradient915"
       gradientUnits="userSpaceOnUse"
       gradientTransform="matrix(4.9910964,0,0,4.9910964,-208.01202,-2851.8908)"
       x1="30.771961"
       y1="587.12067"
       x2="43.275257"
       y2="586.94336" />
    <linearGradient
       inkscape:collect="always"
       xlink:href="#linearGradient2062"
       id="linearGradient2064-8-8"
       x1="108.31814"
       y1="5.3370891"
       x2="108.57314"
       y2="-6.0936003"
       gradientUnits="userSpaceOnUse"
       gradientTransform="matrix(0.24990856,0,0,0.24613405,127.0673,-98.69834)" />
    <linearGradient
       inkscape:collect="always"
       id="linearGradient2062">
      <stop
         style="stop-color:#dcb102;stop-opacity:1"
         offset="0"
         id="stop2058" />
      <stop
         style="stop-color:#fbeb83;stop-opacity:1"
         offset="1"
         id="stop2060" />
    </linearGradient>
  </defs>
  <metadata
     id="metadata4">
    <rdf:RDF>
      <cc:Work
         rdf:about="">
        <dc:format>image/svg+xml</dc:format>
        <dc:type
           rdf:resource="http://purl.org/dc/dcmitype/StillImage" />
        <dc:creator>
          <cc:Agent>
            <dc:title>GNOME Design Team</dc:title>
          </cc:Agent>
        </dc:creator>
        <dc:source />
        <cc:license
           rdf:resource="http://creativecommons.org/licenses/by-sa/4.0/" />
        <dc:title>Adwaita Icon Template</dc:title>
        <dc:subject>
          <rdf:Bag />
        </dc:subject>
        <dc:date />
        <dc:rights>
          <cc:Agent>
            <dc:title />
          </cc:Agent>
        </dc:rights>
        <dc:publisher>
          <cc:Agent>
            <dc:title />
          </cc:Agent>
        </dc:publisher>
        <dc:identifier />
        <dc:relation />
        <dc:language />
        <dc:coverage />
        <dc:description />
        <dc:contributor>
          <cc:Agent>
            <dc:title />
          </cc:Agent>
        </dc:contributor>
      </cc:Work>
      <cc:License
         rdf:about="http://creativecommons.org/licenses/by-sa/4.0/">
        <cc:permits
           rdf:resource="http://creativecommons.org/ns#Reproduction" />
        <cc:permits
           rdf:resource="http://creativecommons.org/ns#Distribution" />
        <cc:requires
           rdf:resource="http://creativecommons.org/ns#Notice" />
        <cc:requires
           rdf:resource="http://creativecommons.org/ns#Attribution" />
        <cc:permits
           rdf:resource="http://creativecommons.org/ns#DerivativeWorks" />
        <cc:requires
           rdf:resource="http://creativecommons.org/ns#ShareAlike" />
      </cc:License>
    </rdf:RDF>
  </metadata>
  <rect
     style="display:inline;opacity:1;fill:url(#linearGradient1747);fill-opacity:1;stroke:none;stroke-width:0.25;stroke-linecap:butt;stroke-linejoin:miter;stroke-miterlimit:4;stroke-dasharray:none;stroke-dashoffset:0;stroke-opacity:1;marker:none;marker-start:none;marker-mid:none;marker-end:none;paint-order:normal;enable-background:new"
     id="rect1709"
     width="104"
     height="83.999992"
     x="12"
     y="32"
     rx="8"
     ry="8" />
  <rect
     style="display:inline;opacity:1;fill:#a7b0b7;fill-opacity:1;stroke:none;stroke-width:0.25;stroke-linecap:butt;stroke-linejoin:miter;stroke-miterlimit:4;stroke-dasharray:none;stroke-dashoffset:0;stroke-opacity:1;marker:none;marker-start:none;marker-mid:none;marker-end:none;paint-order:normal;enable-background:new"
     id="rect879"
     width="104"
     height="100"
     x="12"
     y="16"
     rx="8"
     ry="8" />
  <rect
     ry="8"
     rx="8"
     y="12"
     x="12"
     height="100"
     width="104"
     id="rect1711"
     style="display:inline;opacity:1;fill:#d2d8dc;fill-opacity:1;stroke:none;stroke-width:0.25;stroke-linecap:butt;stroke-linejoin:miter;stroke-miterlimit:4;stroke-dasharray:none;stroke-dashoffset:0;stroke-opacity:1;marker:none;marker-start:none;marker-mid:none;marker-end:none;paint-order:normal;enable-background:new" />
  <rect
     transform="rotate(90)"
     style="display:inline;opacity:1;fill:#d4ade2;fill-opacity:1;fill-rule:nonzero;stroke:#753390;stroke-width:0.99999976;stroke-linecap:round;stroke-linejoin:round;stroke-miterlimit:4;stroke-dasharray:none;stroke-dashoffset:0;stroke-opacity:1;enable-background:new"
     id="rect845-6-2"
     width="17"
     height="17"
     x="20.5"
     y="-37.5"
     rx="4.7480893"
     ry="4.7480898" />
  <rect
     transform="rotate(90)"
     style="display:inline;opacity:1;fill:#d4ade2;fill-opacity:1;fill-rule:nonzero;stroke:#753390;stroke-width:0.99999976;stroke-linecap:round;stroke-linejoin:round;stroke-miterlimit:4;stroke-dasharray:none;stroke-dashoffset:0;stroke-opacity:1;enable-background:new"
     id="rect845-6-2-3"
     width="17"
     height="17"
     x="42.5"
     y="-37.5"
     rx="4.7480893"
     ry="4.7480898" />
  <rect
     transform="rotate(90)"
     style="display:inline;opacity:1;fill:#d4ade2;fill-opacity:1;fill-rule:nonzero;stroke:#753390;stroke-width:0.99999976;stroke-linecap:round;stroke-linejoin:round;stroke-miterlimit:4;stroke-dasharray:none;stroke-dashoffset:0;stroke-opacity:1;enable-background:new"
     id="rect845-6-2-6"
     width="17"
     height="17"
     x="64.5"
     y="-37.5"
     rx="4.7480893"
     ry="4.7480898" />
  <rect
     transform="rotate(90)"
     style="display:inline;opacity:1;fill:#d4ade2;fill-opacity:1;fill-rule:nonzero;stroke:#753390;stroke-width:0.99999976;stroke-linecap:round;stroke-linejoin:round;stroke-miterlimit:4;stroke-dasharray:none;stroke-dashoffset:0;stroke-opacity:1;enable-background:new"
     id="rect845-6-2-7"
     width="17"
     height="17"
     x="86.5"
     y="-37.5"
     rx="4.7480893"
     ry="4.7480898" />
  <rect
     transform="rotate(90)"
     style="display:inline;opacity:1;fill:#d4ade2;fill-opacity:1;fill-rule:nonzero;stroke:#753390;stroke-width:0.99999976;stroke-linecap:round;stroke-linejoin:round;stroke-miterlimit:4;stroke-dasharray:none;stroke-dashoffset:0;stroke-opacity:1;enable-background:new"
     id="rect845-6-2-9"
     width="17"
     height="17"
     x="20.499935"
     y="-107.5"
     rx="4.7480893"
     ry="4.7480898" />
  <rect
     transform="rotate(90)"
     style="display:inline;opacity:1;fill:#d4ade2;fill-opacity:1;fill-rule:nonzero;stroke:#753390;stroke-width:0.99999976;stroke-linecap:round;stroke-linejoin:round;stroke-miterlimit:4;stroke-dasharray:none;stroke-dashoffset:0;stroke-opacity:1;enable-background:new"
     id="rect845-6-2-3-3"
     width="17"
     height="17"
     x="42.499966"
     y="-107.5"
     rx="4.7480893"
     ry="4.7480898" />
  <rect
     transform="rotate(90)"
     style="display:inline;opacity:1;fill:#d4ade2;fill-opacity:1;fill-rule:nonzero;stroke:#753390;stroke-width:0.99999976;stroke-linecap:round;stroke-linejoin:round;stroke-miterlimit:4;stroke-dasharray:none;stroke-dashoffset:0;stroke-opacity:1;enable-background:new"
     id="rect845-6-2-62"
     width="17"
     height="17"
     x="20.5"
     y="-60.5"
     rx="4.7480893"
     ry="4.7480898" />
  <rect
     transform="rotate(90)"
     style="display:inline;opacity:1;fill:#d4ade2;fill-opacity:1;fill-rule:nonzero;stroke:#753390;stroke-width:0.99999976;stroke-linecap:round;stroke-linejoin:round;stroke-miterlimit:4;stroke-dasharray:none;stroke-dashoffset:0;stroke-opacity:1;enable-background:new"
     id="rect845-6-2-3-6"
     width="17"
     height="17"
     x="42.5"
     y="-60.5"
     rx="4.7480893"
     ry="4.7480898" />
  <rect
     transform="rotate(90)"
     style="display:inline;opacity:1;fill:#d4ade2;fill-opacity:1;fill-rule:nonzero;stroke:#753390;stroke-width:0.99999976;stroke-linecap:round;stroke-linejoin:round;stroke-miterlimit:4;stroke-dasharray:none;stroke-dashoffset:0;stroke-opacity:1;enable-background:new"
     id="rect845-6-2-6-1"
     width="17"
     height="17"
     x="64.5"
     y="-60.5"
     rx="4.7480893"
     ry="4.7480898" />
  <rect
     transform="rotate(90)"
     style="display:inline;opacity:1;fill:#d4ade2;fill-opacity:1;fill-rule:nonzero;stroke:#753390;stroke-width:0.99999976;stroke-linecap:round;stroke-linejoin:round;stroke-miterlimit:4;stroke-dasharray:none;stroke-dashoffset:0;stroke-opacity:1;enable-background:new"
     id="rect845-6-2-7-8"
     width="17"
     height="17"
     x="86.5"
     y="-60.5"
     rx="4.7480893"
     ry="4.7480898" />
  <rect
     transform="rotate(90)"
     style="display:inline;opacity:1;fill:#d4ade2;fill-opacity:1;fill-rule:nonzero;stroke:#753390;stroke-width:0.99999976;stroke-linecap:round;stroke-linejoin:round;stroke-miterlimit:4;stroke-dasharray:none;stroke-dashoffset:0;stroke-opacity:1;enable-background:new"
     id="rect845-6-2-79"
     width="17"
     height="17"
     x="20.500002"
     y="-84.5"
     rx="4.7480893"
     ry="4.7480898" />
  <rect
     transform="rotate(90)"
     style="display:inline;opacity:1;fill:#d4ade2;fill-opacity:1;fill-rule:nonzero;stroke:#753390;stroke-width:0.99999976;stroke-linecap:round;stroke-linejoin:round;stroke-miterlimit:4;stroke-dasharray:none;stroke-dashoffset:0;stroke-opacity:1;enable-background:new"
     id="rect845-6-2-3-2"
     width="17"
     height="17"
     x="42.500004"
     y="-84.5"
     rx="4.7480893"
     ry="4.7480898" />
  <rect
     transform="rotate(90)"
     style="display:inline;opacity:1;fill:#d4ade2;fill-opacity:1;fill-rule:nonzero;stroke:#753390;stroke-width:0.99999976;stroke-linecap:round;stroke-linejoin:round;stroke-miterlimit:4;stroke-dasharray:none;stroke-dashoffset:0;stroke-opacity:1;enable-background:new"
     id="rect845-6-2-6-0"
     width="17"
     height="17"
     x="64.5"
     y="-84.5"
     rx="4.7480893"
     ry="4.7480898" />
  <rect
     style="color:#bebebe;display:inline;overflow:visible;visibility:visible;fill:none;fill-opacity:1;stroke:none;stroke-width:2.67149997;marker:none;enable-background:new"
     id="rect18110-7-1-3-6-3-7"
     y="33.336216"
     x="39.241661"
     height="24"
     width="24" />
  <rect
     y="34.155003"
     x="90.424553"
     height="24"
     width="24"
     id="rect4234-7"
     style="display:inline;fill:none;fill-opacity:1;stroke:none;stroke-width:1.5;enable-background:new" />
  <rect
     style="display:inline;opacity:0.95999995;fill:#dcb102;fill-opacity:1;stroke:none;stroke-width:0.59500009;stroke-linecap:butt;stroke-linejoin:miter;stroke-miterlimit:4;stroke-dasharray:none;stroke-dashoffset:0;stroke-opacity:1;paint-order:normal;enable-background:new"
     id="rect1166"
     width="0.12499999"
     height="0.24999999"
     x="23.819908"
     y="104.94118"
     rx="0.53448701"
     ry="0.24999999" />
  <path
     inkscape:connector-curvature="0"
     style="display:inline;opacity:1;fill:#6acfec;fill-opacity:1;stroke:none;stroke-width:0.04999997;stroke-linecap:butt;stroke-linejoin:miter;stroke-miterlimit:4;stroke-dasharray:none;stroke-dashoffset:0;stroke-opacity:1;marker:none;marker-start:none;marker-mid:none;marker-end:none;paint-order:normal;enable-background:new"
     d="m 447.46583,485.93687 v 9.99999 h 10.4 v -8.39999 c 0,-0.8864 -0.7136,-1.6 -1.6,-1.6 z"
     id="rect4553-4-4-0"
     clip-path="url(#clipPath1336-9)"
     transform="matrix(5.0000031,0,0,5.0000031,-2160.8803,-2406.2604)" />
  <path
     id="path27918-3-4-6-7-5"
     style="color:#000000;display:inline;overflow:visible;visibility:visible;fill:#b97ace;fill-opacity:1;stroke:#070c0f;stroke-width:2.99974275;stroke-linecap:round;stroke-linejoin:round;stroke-miterlimit:4;stroke-dasharray:none;stroke-dashoffset:0;stroke-opacity:1;marker:none;enable-background:new"
     transform="matrix(0.70710603,-0.70710753,0.70710603,0.70710753,0,0)"
     sodipodi:type="arc"
     sodipodi:cx="2.1213558"
     sodipodi:cy="78.488815"
     sodipodi:rx="28.509373"
     sodipodi:ry="28.509373"
     sodipodi:start="0"
     sodipodi:end="6.2664029"
     sodipodi:open="true"
     d="M 30.630728,78.488815 A 28.509373,28.509373 0 0 1 2.2409694,106.99794 28.509373,28.509373 0 0 1 -26.387013,78.72804 28.509373,28.509373 0 0 1 1.7625233,49.981701 28.509373,28.509373 0 0 1 30.626714,78.010382" />
  <rect
     style="display:inline;fill:#070c0f;fill-opacity:1;fill-rule:evenodd;stroke:none;stroke-width:0.60907298;stroke-miterlimit:4;stroke-dasharray:none;stroke-opacity:1;enable-background:new"
     id="rect1985-9-2-2-2"
     width="38.810303"
     height="10.124424"
     x="106.299"
     y="-6.0850968"
     rx="3.2305377"
     ry="2.7623656"
     transform="matrix(0.71282464,0.70134231,-0.71282464,0.70134231,0,0)" />
  <rect
     style="display:inline;fill:#263742;fill-opacity:1;fill-rule:evenodd;stroke:none;stroke-width:0.59500003;stroke-miterlimit:4;stroke-dasharray:none;stroke-opacity:1;enable-background:new"
     id="rect1985-9-2-61"
     width="37.913567"
     height="9.8904934"
     x="107.21321"
     y="-8.3514166"
     rx="3.155894"
     ry="2.6985397"
     transform="rotate(45)" />
  <rect
     style="display:inline;fill:url(#linearGradient2064-8-8-2);fill-opacity:1;fill-rule:evenodd;stroke:none;stroke-width:0.06478244;stroke-miterlimit:4;stroke-dasharray:none;stroke-opacity:1;enable-background:new"
     id="rect1985-1-4-0-8"
     width="6.2949238"
     height="9.9059639"
     x="107.21283"
     y="-8.3666372"
     rx="0.53448707"
     ry="0"
     transform="matrix(0.7071086,0.70710496,-0.7071086,0.70710496,0,0)" />
  <path
     id="path4556-5-4-7"
     d="m 447.46583,505.93685 v -9.99999 h -10.39999 v 8.4 c 0,0.88639 0.7136,1.59999 1.6,1.59999 z"
     style="display:inline;opacity:1;fill:#b97ace;fill-opacity:1;stroke:none;stroke-width:0.04999997;stroke-linecap:butt;stroke-linejoin:miter;stroke-miterlimit:4;stroke-dasharray:none;stroke-dashoffset:0;stroke-opacity:1;marker:none;marker-start:none;marker-mid:none;marker-end:none;paint-order:normal;enable-background:new"
     inkscape:connector-curvature="0"
     clip-path="url(#clipPath1301-5)"
     transform="matrix(5.0000031,0,0,5.0000031,-2159.8447,-2408.1079)" />
  <g
     id="g23429-5-03-9"
     inkscape:label="web-browser"
     transform="matrix(2.1608657,0,0,2.1608657,-355.66073,-1107.0549)"
     style="display:inline;fill:#2e3436;fill-opacity:1;enable-background:new">
    <rect
       width="16"
       height="16"
       x="183"
       y="529"
       id="rect18110-7-1-3-6-3-6-2"
       style="color:#bebebe;display:inline;overflow:visible;visibility:visible;fill:none;stroke:none;stroke-width:1.78100002;marker:none;enable-background:new" />
    <path
       sodipodi:nodetypes="cccccccc"
       id="path6242-5-1-0"
       d="m 191.0002,533.84553 v 10.38049 l -2.34399,-2.28818 -1.33941,2.73465 c -0.32808,0.73962 -2.03368,0.14492 -1.5487,-0.84412 l 1.32547,-2.83928 h -2.95789 z"
       style="color:#000000;display:block;overflow:visible;visibility:visible;fill:#471d57;fill-opacity:1;fill-rule:nonzero;stroke:none;stroke-width:1;marker:none;enable-background:accumulate"
       inkscape:connector-curvature="0" />
    <path
       style="color:#000000;font-style:normal;font-variant:normal;font-weight:normal;font-stretch:normal;font-size:medium;line-height:normal;font-family:Sans;-inkscape-font-specification:Sans;text-indent:0;text-align:start;text-decoration:none;text-decoration-line:none;letter-spacing:normal;word-spacing:normal;text-transform:none;writing-mode:lr-tb;direction:ltr;baseline-shift:baseline;text-anchor:start;display:inline;overflow:visible;visibility:visible;fill:#471d57;fill-opacity:1;stroke:none;stroke-width:2;marker:none;enable-background:accumulate"
       d="m 190.15645,530.0625 c -3.82659,0.46006 -6.57883,3.95775 -6.09375,7.78125 0.13127,1.03473 0.29377,1.38184 0.29377,1.38184 l 1.67498,-1.63184 c -0.33104,-2.75343 1.62156,-5.23146 4.375,-5.5625 2.75344,-0.33104 5.23146,1.62156 5.5625,4.375 0.31355,2.60795 -1.39127,5.02493 -3.96875,5.53125 l 0.0312,2 c 0,0 0.52086,-0.1059 0.62354,-0.13097 3.41561,-0.83385 5.70627,-4.1273 5.28271,-7.65028 -0.46006,-3.8266 -3.95466,-6.55381 -7.78125,-6.09375 z"
       id="path23405-6-0-2"
       inkscape:connector-curvature="0"
       sodipodi:nodetypes="csccssccsssc" />
    <path
       id="path11289-2-6-3"
       style="color:#000000;display:inline;overflow:visible;visibility:visible;opacity:0.3;fill:#f1f3f5;fill-opacity:1;fill-rule:nonzero;stroke:none;stroke-width:1;marker:none;enable-background:accumulate"
       d="m 187.11293,536.81497 v -0.20574 l -0.19826,0.0186 c 0.0165,-0.13095 0.0329,-0.26167 0.0496,-0.3926 h -0.11578 l -0.11556,0.14959 -0.11578,0.0559 -0.1653,-0.0932 -0.0165,-0.20575 0.0331,-0.22438 0.24798,-0.18688 h 0.19826 l 0.0329,-0.11229 0.24786,0.0559 0.18183,0.2246 0.0331,-0.37419 0.31401,-0.26167 0.11567,-0.28055 0.23133,-0.0934 0.1322,-0.18688 0.29738,-0.0564 0.14885,-0.22415 c -0.14874,0 -0.29749,0 -0.44623,0 l 0.28094,-0.13095 h 0.19814 l 0.28106,-0.0937 0.0331,-0.11186 -0.0992,-0.0937 -0.11567,-0.0375 0.0331,-0.11208 -0.0826,-0.16822 -0.19837,0.0746 0.0331,-0.14947 -0.23134,-0.13096 -0.18171,0.3177 0.0165,0.11229 -0.18171,0.075 -0.11578,0.24302 -0.0495,-0.22438 -0.31402,-0.13095 -0.0496,-0.16822 0.41315,-0.24325 0.18182,-0.16822 0.0165,-0.20563 -0.0991,-0.0562 -0.13219,-0.0188 -0.0826,0.20575 c 0,0 -0.1382,0.0271 -0.17373,0.0358 -0.45378,0.41804 -1.37066,1.32044 -1.58368,3.02405 0.008,0.0395 0.15441,0.26854 0.15441,0.26854 l 0.347,0.20552 0.347,0.0937 m 3.96609,-4.30034 -0.4298,-0.16833 -0.49552,0.0561 -0.61161,0.16822 -0.11567,0.11229 0.38008,0.26167 v 0.14959 l -0.14875,0.14959 0.19846,0.39294 0.13188,-0.075 0.16561,-0.26168 c 0.2553,-0.0789 0.4842,-0.16833 0.72686,-0.28053 l 0.19846,-0.5048 m 2.52925,0.34192 -0.375,0.0937 -0.21875,0.15625 v 0.125 l -0.375,0.25 0.0937,0.34375 0.21875,-0.15625 0.125,0.15625 0.15625,0.0937 0.0937,-0.28125 -0.0625,-0.15625 0.0625,-0.0937 0.21875,-0.1875 h 0.0937 l -0.0937,0.21875 v 0.1875 c 0.0892,-0.0242 0.1588,-0.051 0.25,-0.0625 l -0.25,0.1875 v 0.125 l -0.3125,0.21875 -0.28125,-0.0625 v -0.15625 l -0.125,0.0625 0.0625,0.15625 h -0.21875 l -0.125,0.21875 -0.15625,0.15625 -0.0937,0.0312 v 0.1875 l 0.0312,0.15625 h -0.0312 v 0.53125 l 0.0625,-0.0312 0.0937,-0.21875 0.1875,-0.125 0.0312,-0.0937 0.28125,-0.0625 0.15625,0.1875 0.1875,0.0937 -0.0937,0.1875 0.15625,-0.0312 0.0625,-0.21875 -0.1875,-0.21875 h 0.0625 L 193.2501,535 l 0.0312,0.21875 0.15625,0.21875 0.0625,-0.3125 0.0937,-0.0312 c 0.0959,0.0996 0.1692,0.23163 0.25,0.34375 h 0.28125 l 0.1875,0.125 -0.0937,0.0937 -0.15625,0.15625 h -0.25 l -0.34375,-0.0937 h -0.1875 l -0.125,0.15625 -0.34375,-0.375 -0.25,-0.0625 -0.375,0.0625 -0.15625,0.0937 V 538 l 0.0312,0.0312 0.25,-0.15625 0.0937,0.0937 h 0.28125 l 0.125,0.15625 -0.0937,0.3125 0.1875,0.1875 v 0.375 l 0.125,0.25 -0.0937,0.25 c -0.009,0.16159 0,0.30714 0,0.46875 0.0795,0.21894 0.14355,0.43575 0.21875,0.65625 l 0.0625,0.34375 v 0.1875 h 0.125 l 0.21875,-0.125 h 0.25 l 0.375,-0.4375 -0.0312,-0.15625 0.25,-0.21875 -0.1875,-0.1875 0.21875,-0.1875 0.21875,-0.125 0.0937,-0.125 -0.0625,-0.25 v -0.59375 l 0.1875,-0.375 0.1875,-0.25 0.25,-0.5625 v -0.15625 c -0.11654,0.0146 -0.22972,0.0231 -0.34375,0.0312 -0.0722,0.005 -0.14446,0 -0.21875,0 -0.12359,-0.25961 -0.2183,-0.50966 -0.3125,-0.78125 l -0.15625,-0.1875 -0.0937,-0.3125 0.0625,-0.0625 0.21875,0.25 0.25,0.5625 0.15625,0.15625 -0.0625,0.21875 0.15625,0.15625 0.25,-0.25 0.3125,-0.21875 0.15625,-0.1875 v -0.21875 c -0.0389,-0.0732 -0.0547,-0.14545 -0.0937,-0.21875 l -0.15625,0.1875 -0.125,-0.15625 -0.1875,-0.125 v -0.28125 l 0.21875,0.21875 0.21875,-0.0312 c 0.10166,0.0923 0.19205,0.20751 0.28125,0.3125 l 0.15625,-0.1875 c 0,-0.17463 -0.19976,-1.02044 -0.625,-1.75 -0.42526,-0.72932 -1.15625,-1.40625 -1.15625,-1.40625 l -0.0625,0.0937 -0.21875,0.21875 -0.25,-0.25 h 0.25 l 0.125,-0.125 -0.46875,-0.0937 -0.25,-0.0937 z"
       inkscape:connector-curvature="0" />
  </g>
  <path
     style="display:inline;fill:#ad7702;fill-opacity:1;stroke:none;stroke-width:0.99999994px;stroke-linecap:butt;stroke-linejoin:miter;stroke-opacity:1;enable-background:new"
     d="m 79.173787,81.350362 -1.0414,1.153151 -4.7969,-4.683203 1.43755,-0.973051"
     id="path1168-2"
     inkscape:connector-curvature="0"
     sodipodi:nodetypes="cccc" />
  <path
     id="path27918-3-4-6-7"
     style="color:#000000;display:inline;overflow:visible;visibility:visible;fill:url(#linearGradient915);fill-opacity:1;stroke:#263742;stroke-width:2.99974275;stroke-linecap:round;stroke-linejoin:round;stroke-miterlimit:4;stroke-dasharray:none;stroke-dashoffset:0;stroke-opacity:1;marker:none;enable-background:new"
     transform="matrix(0.70710603,-0.70710753,0.70710603,0.70710753,0,0)"
     sodipodi:type="arc"
     sodipodi:cx="2.8284607"
     sodipodi:cy="77.781708"
     sodipodi:rx="28.509373"
     sodipodi:ry="28.509373"
     sodipodi:start="0"
     sodipodi:end="6.2664029"
     sodipodi:open="true"
     d="M 31.337833,77.781708 A 28.509373,28.509373 0 0 1 2.9480743,106.29083 28.509373,28.509373 0 0 1 -25.679908,78.020933 28.509373,28.509373 0 0 1 2.4696282,49.274593 28.509373,28.509373 0 0 1 31.333819,77.303274" />
  <circle
     style="color:#000000;display:inline;overflow:visible;visibility:visible;opacity:0.322;fill:#c1ebf7;fill-opacity:1;fill-rule:nonzero;stroke:none;stroke-width:0.3582285;marker:none;filter:url(#filter1069-3);enable-background:new"
     id="circle21711-7-41-9-8-8-5"
     cx="444.93073"
     cy="-381.89264"
     transform="matrix(5.0000031,0,0,-5.0000031,-2167.4379,-1873.4977)"
     r="1.9173677" />
  <circle
     r="1.9173677"
     transform="matrix(2.5292898,0,0,-2.5292898,-1057.2931,-926.79906)"
     cy="-381.89264"
     cx="444.93073"
     id="circle1073-9"
     style="color:#000000;display:inline;overflow:visible;visibility:visible;opacity:0.322;fill:#c1ebf7;fill-opacity:1;fill-rule:nonzero;stroke:none;stroke-width:0.7081607;marker:none;filter:url(#filter1069-3);enable-background:new" />
  <rect
     style="display:inline;opacity:1;fill:#a7b0b7;fill-opacity:1;stroke:none;stroke-width:0.09682436;stroke-linecap:butt;stroke-linejoin:miter;stroke-miterlimit:4;stroke-dasharray:none;stroke-dashoffset:0;stroke-opacity:1;marker:none;marker-start:none;marker-mid:none;marker-end:none;paint-order:normal;enable-background:new"
     id="rect833-4-7"
     width="39.999859"
     height="38.999954"
     x="153.00008"
     y="14.000053"
     rx="3"
     ry="4.1052718" />
  <rect
     style="display:inline;opacity:1;fill:#d2d8dc;fill-opacity:1;stroke:none;stroke-width:0.09682436;stroke-linecap:butt;stroke-linejoin:miter;stroke-miterlimit:4;stroke-dasharray:none;stroke-dashoffset:0;stroke-opacity:1;marker:none;marker-start:none;marker-mid:none;marker-end:none;paint-order:normal;enable-background:new"
     id="rect833-4"
     width="39.999859"
     height="38.999954"
     x="153.00008"
     y="12.999992"
     rx="3"
     ry="4.1052718" />
  <rect
     transform="rotate(90)"
     style="display:inline;opacity:1;fill:#d4ade2;fill-opacity:1;fill-rule:nonzero;stroke:#753390;stroke-width:1.00049937;stroke-linecap:round;stroke-linejoin:round;stroke-miterlimit:4;stroke-dasharray:none;stroke-dashoffset:0;stroke-opacity:1;enable-background:new"
     id="rect845-6-2-3-3-6-5-7"
     width="5.9995008"
     height="5.9995008"
     x="16.500208"
     y="-189.49988"
     rx="1.6756563"
     ry="1.6756564" />
  <rect
     transform="rotate(90)"
     style="display:inline;opacity:1;fill:#d4ade2;fill-opacity:1;fill-rule:nonzero;stroke:#753390;stroke-width:1.00049937;stroke-linecap:round;stroke-linejoin:round;stroke-miterlimit:4;stroke-dasharray:none;stroke-dashoffset:0;stroke-opacity:1;enable-background:new"
     id="rect845-6-2-3-3-6-5-2-3"
     width="5.9995008"
     height="5.9995008"
     x="16.500208"
     y="-180.49979"
     rx="1.6756563"
     ry="1.6756564" />
  <rect
     transform="rotate(90)"
     style="display:inline;opacity:1;fill:#d4ade2;fill-opacity:1;fill-rule:nonzero;stroke:#753390;stroke-width:1.00049937;stroke-linecap:round;stroke-linejoin:round;stroke-miterlimit:4;stroke-dasharray:none;stroke-dashoffset:0;stroke-opacity:1;enable-background:new"
     id="rect845-6-2-3-3-6-5-28-6"
     width="5.9995008"
     height="5.9995008"
     x="16.500208"
     y="-171.49985"
     rx="1.6756563"
     ry="1.6756564" />
  <rect
     transform="rotate(90)"
     style="display:inline;opacity:1;fill:#d4ade2;fill-opacity:1;fill-rule:nonzero;stroke:#753390;stroke-width:1.00049937;stroke-linecap:round;stroke-linejoin:round;stroke-miterlimit:4;stroke-dasharray:none;stroke-dashoffset:0;stroke-opacity:1;enable-background:new"
     id="rect845-6-2-3-3-6-5-9-1"
     width="5.9995008"
     height="5.9995008"
     x="16.500208"
     y="-162.49988"
     rx="1.6756563"
     ry="1.6756564" />
  <rect
     transform="rotate(90)"
     style="display:inline;opacity:1;fill:#d4ade2;fill-opacity:1;fill-rule:nonzero;stroke:#753390;stroke-width:1.00049937;stroke-linecap:round;stroke-linejoin:round;stroke-miterlimit:4;stroke-dasharray:none;stroke-dashoffset:0;stroke-opacity:1;enable-background:new"
     id="rect845-6-2-3-3-6-5-9-9"
     width="5.9995008"
     height="5.9995008"
     x="25.223816"
     y="-162.35663"
     rx="1.6756563"
     ry="1.6756564" />
  <rect
     transform="rotate(90)"
     style="display:inline;opacity:1;fill:#d4ade2;fill-opacity:1;fill-rule:nonzero;stroke:#753390;stroke-width:1.00049937;stroke-linecap:round;stroke-linejoin:round;stroke-miterlimit:4;stroke-dasharray:none;stroke-dashoffset:0;stroke-opacity:1;enable-background:new"
     id="rect845-6-2-3-3-6-5-9-4"
     width="5.9995008"
     height="5.9995008"
     x="34.500252"
     y="-162.49988"
     rx="1.6756563"
     ry="1.6756564" />
  <rect
     transform="rotate(45)"
     ry="1.0378963"
     rx="1.2138013"
     y="-101.15589"
     x="153.42883"
     height="3.804023"
     width="14.582091"
     id="rect1985-9-2"
     style="display:inline;fill:#263742;fill-opacity:1;fill-rule:evenodd;stroke:#070c0f;stroke-width:1;stroke-miterlimit:4;stroke-dasharray:none;stroke-opacity:1;enable-background:new" />
  <rect
     transform="matrix(0.7071086,0.70710496,-0.7071086,0.70710496,0,0)"
     ry="0.4922682"
     rx="0.20557123"
     y="-101.15913"
     x="153.42847"
     height="3.809973"
     width="2.4211164"
     id="rect1985-1-4-0"
     style="display:inline;fill:url(#linearGradient2064-8-8);fill-opacity:1;fill-rule:evenodd;stroke:#dcb102;stroke-width:1;stroke-miterlimit:4;stroke-dasharray:none;stroke-opacity:1;enable-background:new" />
  <path
     d="M 109.66218,142.21362 A 10.536945,10.536945 0 0 1 99.169445,152.75048 10.536945,10.536945 0 0 1 88.588662,142.30204 10.536945,10.536945 0 0 1 98.992614,131.67751 10.536945,10.536945 0 0 1 109.6607,142.0368"
     sodipodi:open="true"
     sodipodi:end="6.2664029"
     sodipodi:start="0"
     sodipodi:ry="10.536945"
     sodipodi:rx="10.536945"
     sodipodi:cy="142.21362"
     sodipodi:cx="99.125237"
     sodipodi:type="arc"
     transform="matrix(0.706378,-0.70783482,0.70637785,0.70783497,0,0)"
     style="color:#000000;display:inline;overflow:visible;visibility:visible;fill:#b97ace;fill-opacity:1;stroke:#003445;stroke-width:1.91528201;stroke-linecap:round;stroke-linejoin:round;stroke-miterlimit:4;stroke-dasharray:none;stroke-dashoffset:0;stroke-opacity:1;marker:none;enable-background:new"
     id="path27918-3-4-6" />
  <g
     style="display:inline;fill:#2e3436;fill-opacity:1;enable-background:new"
     transform="matrix(1,0,0,0.99977127,-19.999939,-506.87901)"
     inkscape:label="web-browser"
     id="g23429-5-03">
    <rect
       style="color:#bebebe;display:inline;overflow:visible;visibility:visible;fill:none;stroke:none;stroke-width:1.78100002;marker:none;enable-background:new"
       id="rect18110-7-1-3-6-3-6"
       y="529"
       x="183"
       height="16"
       width="16" />
    <path
       inkscape:connector-curvature="0"
       style="color:#000000;display:block;overflow:visible;visibility:visible;fill:#471d57;fill-opacity:1;fill-rule:nonzero;stroke:none;stroke-width:1;marker:none;enable-background:accumulate"
       d="m 191.0002,533.84553 v 10.38049 l -2.34399,-2.28818 -1.33941,2.73465 c -0.32808,0.73962 -2.03368,0.14492 -1.5487,-0.84412 l 1.32547,-2.83928 h -2.95789 z"
       id="path6242-5-1"
       sodipodi:nodetypes="cccccccc" />
    <path
       sodipodi:nodetypes="csccssccsssc"
       inkscape:connector-curvature="0"
       id="path23405-6-0"
       d="m 190.15645,530.0625 c -3.82659,0.46006 -6.57883,3.95775 -6.09375,7.78125 0.13127,1.03473 0.29377,1.38184 0.29377,1.38184 l 1.67498,-1.63184 c -0.33104,-2.75343 1.62156,-5.23146 4.375,-5.5625 2.75344,-0.33104 5.23146,1.62156 5.5625,4.375 0.31355,2.60795 -1.39127,5.02493 -3.96875,5.53125 l 0.0312,2 c 0,0 0.52086,-0.1059 0.62354,-0.13097 3.41561,-0.83385 5.70627,-4.1273 5.28271,-7.65028 -0.46006,-3.8266 -3.95466,-6.55381 -7.78125,-6.09375 z"
       style="color:#000000;font-style:normal;font-variant:normal;font-weight:normal;font-stretch:normal;font-size:medium;line-height:normal;font-family:Sans;-inkscape-font-specification:Sans;text-indent:0;text-align:start;text-decoration:none;text-decoration-line:none;letter-spacing:normal;word-spacing:normal;text-transform:none;writing-mode:lr-tb;direction:ltr;baseline-shift:baseline;text-anchor:start;display:inline;overflow:visible;visibility:visible;fill:#471d57;fill-opacity:1;stroke:none;stroke-width:2;marker:none;enable-background:accumulate" />
    <path
       inkscape:connector-curvature="0"
       d="m 187.11293,536.81497 v -0.20574 l -0.19826,0.0186 c 0.0165,-0.13095 0.0329,-0.26167 0.0496,-0.3926 h -0.11578 l -0.11556,0.14959 -0.11578,0.0559 -0.1653,-0.0932 -0.0165,-0.20575 0.0331,-0.22438 0.24798,-0.18688 h 0.19826 l 0.0329,-0.11229 0.24786,0.0559 0.18183,0.2246 0.0331,-0.37419 0.31401,-0.26167 0.11567,-0.28055 0.23133,-0.0934 0.1322,-0.18688 0.29738,-0.0564 0.14885,-0.22415 c -0.14874,0 -0.29749,0 -0.44623,0 l 0.28094,-0.13095 h 0.19814 l 0.28106,-0.0937 0.0331,-0.11186 -0.0992,-0.0937 -0.11567,-0.0375 0.0331,-0.11208 -0.0826,-0.16822 -0.19837,0.0746 0.0331,-0.14947 -0.23134,-0.13096 -0.18171,0.3177 0.0165,0.11229 -0.18171,0.075 -0.11578,0.24302 -0.0495,-0.22438 -0.31402,-0.13095 -0.0496,-0.16822 0.41315,-0.24325 0.18182,-0.16822 0.0165,-0.20563 -0.0991,-0.0562 -0.13219,-0.0188 -0.0826,0.20575 c 0,0 -0.1382,0.0271 -0.17373,0.0358 -0.45378,0.41804 -1.37066,1.32044 -1.58368,3.02405 0.008,0.0395 0.15441,0.26854 0.15441,0.26854 l 0.347,0.20552 0.347,0.0937 m 3.96609,-4.30034 -0.4298,-0.16833 -0.49552,0.0561 -0.61161,0.16822 -0.11567,0.11229 0.38008,0.26167 v 0.14959 l -0.14875,0.14959 0.19846,0.39294 0.13188,-0.075 0.16561,-0.26168 c 0.2553,-0.0789 0.4842,-0.16833 0.72686,-0.28053 l 0.19846,-0.5048 m 2.52925,0.34192 -0.375,0.0937 -0.21875,0.15625 v 0.125 l -0.375,0.25 0.0937,0.34375 0.21875,-0.15625 0.125,0.15625 0.15625,0.0937 0.0937,-0.28125 -0.0625,-0.15625 0.0625,-0.0937 0.21875,-0.1875 h 0.0937 l -0.0937,0.21875 v 0.1875 c 0.0892,-0.0242 0.1588,-0.051 0.25,-0.0625 l -0.25,0.1875 v 0.125 l -0.3125,0.21875 -0.28125,-0.0625 v -0.15625 l -0.125,0.0625 0.0625,0.15625 h -0.21875 l -0.125,0.21875 -0.15625,0.15625 -0.0937,0.0312 v 0.1875 l 0.0312,0.15625 h -0.0312 v 0.53125 l 0.0625,-0.0312 0.0937,-0.21875 0.1875,-0.125 0.0312,-0.0937 0.28125,-0.0625 0.15625,0.1875 0.1875,0.0937 -0.0937,0.1875 0.15625,-0.0312 0.0625,-0.21875 -0.1875,-0.21875 h 0.0625 L 193.2501,535 l 0.0312,0.21875 0.15625,0.21875 0.0625,-0.3125 0.0937,-0.0312 c 0.0959,0.0996 0.1692,0.23163 0.25,0.34375 h 0.28125 l 0.1875,0.125 -0.0937,0.0937 -0.15625,0.15625 h -0.25 l -0.34375,-0.0937 h -0.1875 l -0.125,0.15625 -0.34375,-0.375 -0.25,-0.0625 -0.375,0.0625 -0.15625,0.0937 V 538 l 0.0312,0.0312 0.25,-0.15625 0.0937,0.0937 h 0.28125 l 0.125,0.15625 -0.0937,0.3125 0.1875,0.1875 v 0.375 l 0.125,0.25 -0.0937,0.25 c -0.009,0.16159 0,0.30714 0,0.46875 0.0795,0.21894 0.14355,0.43575 0.21875,0.65625 l 0.0625,0.34375 v 0.1875 h 0.125 l 0.21875,-0.125 h 0.25 l 0.375,-0.4375 -0.0312,-0.15625 0.25,-0.21875 -0.1875,-0.1875 0.21875,-0.1875 0.21875,-0.125 0.0937,-0.125 -0.0625,-0.25 v -0.59375 l 0.1875,-0.375 0.1875,-0.25 0.25,-0.5625 v -0.15625 c -0.11654,0.0146 -0.22972,0.0231 -0.34375,0.0312 -0.0722,0.005 -0.14446,0 -0.21875,0 -0.12359,-0.25961 -0.2183,-0.50966 -0.3125,-0.78125 l -0.15625,-0.1875 -0.0937,-0.3125 0.0625,-0.0625 0.21875,0.25 0.25,0.5625 0.15625,0.15625 -0.0625,0.21875 0.15625,0.15625 0.25,-0.25 0.3125,-0.21875 0.15625,-0.1875 v -0.21875 c -0.0389,-0.0732 -0.0547,-0.14545 -0.0937,-0.21875 l -0.15625,0.1875 -0.125,-0.15625 -0.1875,-0.125 v -0.28125 l 0.21875,0.21875 0.21875,-0.0312 c 0.10166,0.0923 0.19205,0.20751 0.28125,0.3125 l 0.15625,-0.1875 c 0,-0.17463 -0.19976,-1.02044 -0.625,-1.75 -0.42526,-0.72932 -1.15625,-1.40625 -1.15625,-1.40625 l -0.0625,0.0937 -0.21875,0.21875 -0.25,-0.25 h 0.25 l 0.125,-0.125 -0.46875,-0.0937 -0.25,-0.0937 z"
       style="color:#000000;display:inline;overflow:visible;visibility:visible;opacity:0.3;fill:#f1f3f5;fill-opacity:1;fill-rule:nonzero;stroke:none;stroke-width:1;marker:none;enable-background:accumulate"
       id="path11289-2-6" />
  </g>
  <rect
     transform="rotate(90)"
     style="display:inline;opacity:1;fill:#d4ade2;fill-opacity:1;fill-rule:nonzero;stroke:#753390;stroke-width:1.00049937;stroke-linecap:round;stroke-linejoin:round;stroke-miterlimit:4;stroke-dasharray:none;stroke-dashoffset:0;stroke-opacity:1;enable-background:new"
     id="rect845-6-2-3-3-6-5-28"
     width="5.9995008"
     height="5.9995008"
     x="43.500195"
     y="-171.49985"
     rx="1.6756563"
     ry="1.6756564" />
  <rect
     transform="rotate(90)"
     style="display:inline;opacity:1;fill:#d4ade2;fill-opacity:1;fill-rule:nonzero;stroke:#753390;stroke-width:1.00049937;stroke-linecap:round;stroke-linejoin:round;stroke-miterlimit:4;stroke-dasharray:none;stroke-dashoffset:0;stroke-opacity:1;enable-background:new"
     id="rect845-6-2-3-3-6-5-9"
     width="5.9995008"
     height="5.9995008"
     x="43.500195"
     y="-162.49988"
     rx="1.6756563"
     ry="1.6756564" />
  <rect
     transform="rotate(90)"
     style="display:inline;opacity:1;fill:#d4ade2;fill-opacity:1;fill-rule:nonzero;stroke:#753390;stroke-width:1.00049937;stroke-linecap:round;stroke-linejoin:round;stroke-miterlimit:4;stroke-dasharray:none;stroke-dashoffset:0;stroke-opacity:1;enable-background:new"
     id="rect845-6-2-3-3-6-5"
     width="5.9995008"
     height="5.9995008"
     x="25.223816"
     y="-189.3566"
     rx="1.6756563"
     ry="1.6756564" />
  <rect
     style="display:inline;opacity:1;fill:#d2d8dc;fill-opacity:1;stroke:#a7b0b7;stroke-width:0.99977118;stroke-linecap:butt;stroke-linejoin:miter;stroke-miterlimit:4;stroke-dasharray:none;stroke-dashoffset:0;stroke-opacity:1;marker:none;marker-start:none;marker-mid:none;marker-end:none;paint-order:normal;enable-background:new"
     id="rect833-4-3"
     width="15.000229"
     height="15.000229"
     x="161.49988"
     y="77.499947"
     rx="1.1250209"
     ry="1.5789764" />
  <rect
     style="display:inline;opacity:1;fill:#263742;fill-opacity:1;stroke:none;stroke-width:2.11928988;stroke-linecap:butt;stroke-linejoin:miter;stroke-miterlimit:4;stroke-dasharray:none;stroke-dashoffset:0;stroke-opacity:1;paint-order:normal;enable-background:new"
     id="rect1032-3"
     width="2.9998975"
     height="8.0000629"
     x="57.862755"
     y="181.96893"
     rx="0.99985355"
     ry="0.99992955"
     transform="rotate(-45)" />
  <rect
     style="display:inline;opacity:1;fill:#dcb102;fill-opacity:1;stroke:none;stroke-width:1.05964184;stroke-linecap:butt;stroke-linejoin:miter;stroke-miterlimit:4;stroke-dasharray:none;stroke-dashoffset:0;stroke-opacity:1;paint-order:normal;enable-background:new"
     id="rect1032"
     width="2.9998975"
     height="2.0000041"
     x="57.862755"
     y="181.96893"
     rx="0.99991214"
     ry="1.000002"
     transform="rotate(-45)" />
  <path
     id="path27918-3-4-6-5"
     style="color:#000000;display:inline;overflow:visible;visibility:visible;fill:#b97ace;fill-opacity:1;stroke:#003445;stroke-width:1.00016606;stroke-linecap:round;stroke-linejoin:round;stroke-miterlimit:4;stroke-dasharray:none;stroke-dashoffset:0;stroke-opacity:1;marker:none;enable-background:new"
     transform="matrix(0.70710398,-0.70710958,0.70710398,0.70710958,0,0)"
     sodipodi:type="arc"
     sodipodi:cx="59.397743"
     sodipodi:cy="176.77695"
     sodipodi:rx="5.5030313"
     sodipodi:ry="5.5030313"
     sodipodi:start="0"
     sodipodi:end="6.2664029"
     sodipodi:open="true"
     d="m 64.900774,176.77695 a 5.5030313,5.5030313 0 0 1 -5.479942,5.50298 5.5030313,5.5030313 0 0 1 -5.525926,-5.45681 5.5030313,5.5030313 0 0 1 5.433573,-5.54877 A 5.5030313,5.5030313 0 0 1 64.9,176.6846" />
  <rect
     width="8"
     height="7.9981704"
     x="162.99995"
     y="79.000015"
     id="rect18110-7-1-3-6-3-6-6"
     style="color:#bebebe;display:inline;overflow:visible;visibility:visible;fill:none;fill-opacity:1;stroke:none;stroke-width:0.8903982;marker:none;enable-background:new" />
  <path
     sodipodi:nodetypes="cccccccc"
     id="path6242-5-1-2"
     d="m 167.00005,81.422225 v 5.189058 l -1.17199,-1.143828 -0.66971,1.367012 c -0.16404,0.369726 -1.01684,0.07244 -0.77435,-0.421964 l 0.66274,-1.419315 h -1.47895 z"
     style="color:#000000;display:block;overflow:visible;visibility:visible;fill:#471d57;fill-opacity:1;fill-rule:nonzero;stroke:none;stroke-width:0.49994284;marker:none;enable-background:accumulate"
     inkscape:connector-curvature="0" />
  <path
     style="color:#000000;font-style:normal;font-variant:normal;font-weight:normal;font-stretch:normal;font-size:medium;line-height:normal;font-family:Sans;-inkscape-font-specification:Sans;text-indent:0;text-align:start;text-decoration:none;text-decoration-line:none;letter-spacing:normal;word-spacing:normal;text-transform:none;writing-mode:lr-tb;direction:ltr;baseline-shift:baseline;text-anchor:start;display:inline;overflow:visible;visibility:visible;fill:#471d57;fill-opacity:1;stroke:none;stroke-width:0.99988568;marker:none;enable-background:accumulate"
     d="m 166.57818,79.531142 c -1.9133,0.229978 -3.28942,1.978423 -3.04688,3.889736 0.0656,0.517246 0.14689,0.690762 0.14689,0.690762 l 0.83749,-0.815734 c -0.16552,-1.3764 0.81078,-2.615132 2.1875,-2.780614 1.37672,-0.165482 2.61573,0.810595 2.78125,2.187 0.15677,1.303677 -0.69564,2.51189 -1.98438,2.764993 l 0.0156,0.999771 c 0,0 0.26043,-0.05294 0.31177,-0.06547 1.70781,-0.41683 2.85314,-2.063178 2.64136,-3.824265 -0.23003,-1.912863 -1.97733,-3.276156 -3.89063,-3.046179 z"
     id="path23405-6-0-9"
     inkscape:connector-curvature="0"
     sodipodi:nodetypes="csccssccsssc" />
</svg>
